# xmcd
#
# Track frame offsets:
#	150
#	20858
#	38202
#	56732
#	74708
#	94539
#	110985
#	129451
#	148846
#	171343
#	191392
#	208710
#	226727
#	243174
#	267750
#	286055
#	304718
#	319311
#
# Disc length: 4441 seconds
#
# Revision: 1
# Processed by: cddbd v1.5.2PL0 Copyright (c) Steve Scherf et al.
# Submitted via: audiograbber 1.83.01
#
DISCID=10115712
DTITLE=Various Artist - Kuschelrock 12
DYEAR=1900
DGENRE=
TTITLE0=Savage Garden - Truely Madly Deeply
TTITLE1=Barbara Streisand - Woman in Love
TTITLE2=Bruce Springsteen - The River
TTITLE3=Midge Ure - Breathe
TTITLE4=Leann Rimes - How Do I Love
TTITLE5=Fleetwood Mac - Sara
TTITLE6=Wet Wet Wet - Julia Says
TTITLE7=Eternal - Angel Of Mine
TTITLE8=Ricky Martin - Corazonado
TTITLE9=Eros Ramazzotti - Cose Della Vita
TTITLE10=Mariah Carey - My All
TTITLE11=Elton John - Can You Feel The Love Tonight
TTITLE12=K-Ci and Jojo - All My Life
TTITLE13=George Michael - You Have Been Loved
TTITLE14=Tina Arena - If I Was A River
TTITLE15=Phil Collins - The Same Moon
TTITLE16=Az Yet and P. Cetera - Hard To Say I´m Sorry
TTITLE17=Art Garfunkel - Dreamland
EXTD=
EXTT0=
EXTT1=
EXTT2=
EXTT3=
EXTT4=
EXTT5=
EXTT6=
EXTT7=
EXTT8=
EXTT9=
EXTT10=
EXTT11=
EXTT12=
EXTT13=
EXTT14=
EXTT15=
EXTT16=
EXTT17=
PLAYORDER=
